<svg width="32" height="32" viewBox="0 0 32 32" fill="none" xmlns="http://www.w3.org/2000/svg">
<g clip-path="url(#clip0_292_103)">
<path d="M32 15.9971C31.9989 18.7112 31.308 21.3804 29.9921 23.7541C28.6762 26.1277 26.7786 28.1278 24.4775 29.5663C22.1765 31.0049 19.5475 31.8347 16.8377 31.9778C14.1279 32.121 11.4262 31.5727 8.9864 30.3845L1.54 31.3159C1.41679 31.3313 1.29169 31.3177 1.17462 31.2764C1.05754 31.235 0.951698 31.1669 0.865465 31.0776C0.779234 30.9882 0.714981 30.88 0.677792 30.7616C0.640602 30.6431 0.631496 30.5175 0.651199 30.3949L1.784 23.3464C0.672464 21.1938 0.0641041 18.8169 0.00479698 16.3949C-0.054512 13.9729 0.436783 11.569 1.44163 9.36455C2.44647 7.1601 3.93863 5.21262 5.80559 3.66897C7.67255 2.12531 9.86557 1.02579 12.2193 0.453308C14.573 -0.119175 17.0259 -0.149673 19.3931 0.364113C21.7603 0.877903 23.98 1.92257 25.8847 3.41932C27.7895 4.91608 29.3296 6.82586 30.3889 9.00464C31.4482 11.1834 31.9991 13.5743 32 15.9971V15.9971Z" fill="white"/>
<path fill-rule="evenodd" clip-rule="evenodd" d="M16.4568 14.3152V13.896H17.7136V19.796H16.9936C16.8516 19.796 16.7153 19.7398 16.6146 19.6397C16.5139 19.5396 16.4569 19.4036 16.456 19.2616C15.9993 19.5952 15.4591 19.7959 14.8954 19.8413C14.3316 19.8868 13.7663 19.7752 13.262 19.5191C12.7578 19.263 12.3343 18.8722 12.0384 18.3902C11.7426 17.9081 11.586 17.3536 11.586 16.788C11.586 16.2224 11.7426 15.6679 12.0384 15.1858C12.3343 14.7038 12.7578 14.313 13.262 14.0569C13.7663 13.8008 14.3316 13.6893 14.8954 13.7347C15.4591 13.7802 15.9993 13.9808 16.456 14.3144L16.4568 14.3152ZM11.2576 11.9984V12.1896C11.2772 12.5423 11.1789 12.8916 10.9784 13.1824L10.9504 13.2144C10.9 13.272 10.7808 13.4064 10.724 13.48L6.68801 18.5424H11.2576V19.2624C11.2574 19.4051 11.2006 19.5418 11.0996 19.6426C10.9987 19.7434 10.8619 19.8 10.7192 19.8H4.80001V19.4584C4.78314 19.1756 4.86547 18.8958 5.03281 18.6672L9.33441 13.3424H4.97921V11.9984H11.2576ZM19.2384 19.796C19.1197 19.7958 19.0058 19.7485 18.9219 19.6646C18.8379 19.5806 18.7906 19.4668 18.7904 19.348V11.9984H20.136V19.796H19.2384ZM24.1136 13.688C24.7237 13.6883 25.32 13.8695 25.8271 14.2087C26.3342 14.5479 26.7293 15.0299 26.9625 15.5936C27.1957 16.1574 27.2566 16.7776 27.1373 17.3759C27.018 17.9742 26.724 18.5237 26.2924 18.9549C25.8609 19.3862 25.3111 19.6797 24.7127 19.7986C24.1143 19.9174 23.4942 19.8561 22.9306 19.6224C22.367 19.3888 21.8854 18.9933 21.5466 18.4859C21.2078 17.9785 21.0271 17.3821 21.0272 16.772C21.0276 15.9538 21.353 15.1693 21.9318 14.5909C22.5106 14.0126 23.2954 13.6878 24.1136 13.688ZM14.6488 18.5904C15.0051 18.5906 15.3535 18.4851 15.6499 18.2872C15.9462 18.0894 16.1773 17.8081 16.3138 17.479C16.4503 17.1499 16.4861 16.7876 16.4168 16.4381C16.3474 16.0886 16.1759 15.7675 15.9241 15.5155C15.6723 15.2634 15.3513 15.0917 15.0019 15.022C14.6524 14.9523 14.2902 14.9878 13.9609 15.124C13.6316 15.2603 13.3502 15.491 13.1521 15.7872C12.954 16.0834 12.8482 16.4317 12.848 16.788C12.848 17.2658 13.0377 17.724 13.3754 18.0619C13.713 18.3999 14.1711 18.59 14.6488 18.5904ZM24.1136 18.5904C24.4726 18.5904 24.8235 18.484 25.122 18.2846C25.4205 18.0851 25.6531 17.8017 25.7906 17.47C25.928 17.1384 25.964 16.7735 25.894 16.4214C25.824 16.0693 25.6512 15.7458 25.3974 15.492C25.1437 15.2381 24.8203 15.0651 24.4682 14.995C24.1162 14.9249 23.7512 14.9607 23.4195 15.098C23.0878 15.2352 22.8043 15.4678 22.6047 15.7662C22.4052 16.0646 22.2986 16.4154 22.2984 16.7744C22.299 17.2555 22.4905 17.7167 22.8309 18.0567C23.1712 18.3967 23.6325 18.5878 24.1136 18.588V18.5904Z" fill="#0C1936"/>
</g>
<defs>
<clipPath id="clip0_292_103">
<rect width="32" height="32" fill="white"/>
</clipPath>
</defs>
</svg>
